<svg width="24" height="24" viewBox="0 0 24 24" fill="none" xmlns="http://www.w3.org/2000/svg">
  <circle cx="12" cy="12" r="11" fill="#07C160"/>
  <path d="M8.06 8.43C5.7 8.43 3.79 10.13 3.79 12.22C3.79 13.54 4.55 14.71 5.71 15.41L5.17 17.16L7.01 16.22C7.35 16.28 7.7 16.31 8.06 16.31C10.42 16.31 12.33 14.61 12.33 12.52C12.33 10.44 10.42 8.43 8.06 8.43Z" fill="white"/>
  <circle cx="6.96" cy="11.98" r="0.64" fill="#111827"/>
  <circle cx="9.22" cy="11.98" r="0.64" fill="#111827"/>
  <path d="M15.76 9.48C13.65 9.48 11.94 11 11.94 12.87C11.94 14.75 13.65 16.27 15.76 16.27C16.09 16.27 16.41 16.24 16.72 16.19L18.25 16.96L17.81 15.53C18.78 14.95 19.39 13.97 19.39 12.87C19.39 11 17.68 9.48 15.76 9.48Z" fill="white"/>
  <circle cx="14.87" cy="12.79" r="0.57" fill="#111827"/>
  <circle cx="16.74" cy="12.79" r="0.57" fill="#111827"/>
</svg>
